<?xml version="1.0" encoding="UTF-8"?>
<!DOCTYPE svg PUBLIC "-//W3C//DTD SVG 1.1//EN" "http://www.w3.org/Graphics/SVG/1.1/DTD/svg11.dtd">
<!-- Creator: CorelDRAW 2019 (64-Bit) -->
<svg xmlns="http://www.w3.org/2000/svg" xml:space="preserve" width="1.56345in" height="1.80223in" version="1.1" style="shape-rendering:geometricPrecision; text-rendering:geometricPrecision; image-rendering:optimizeQuality; fill-rule:evenodd; clip-rule:evenodd"
viewBox="0 0 1568.62 1808.19"
 xmlns:xlink="http://www.w3.org/1999/xlink">
 <defs>
  <style type="text/css">
   <![CDATA[
    .fil210 {fill:#FEFEFE}
    .fil124 {fill:#71C65F}
    .fil123 {fill:#72C660}
    .fil122 {fill:#72C661}
    .fil125 {fill:#72C763}
    .fil126 {fill:#72C765}
    .fil121 {fill:#73C762}
    .fil120 {fill:#73C764}
    .fil127 {fill:#73C767}
    .fil128 {fill:#73C769}
    .fil119 {fill:#74C765}
    .fil118 {fill:#74C766}
    .fil117 {fill:#74C768}
    .fil129 {fill:#74C86B}
    .fil130 {fill:#74C86D}
    .fil116 {fill:#75C769}
    .fil115 {fill:#75C76A}
    .fil131 {fill:#75C86F}
    .fil132 {fill:#75C871}
    .fil133 {fill:#75C873}
    .fil114 {fill:#76C86B}
    .fil113 {fill:#76C86D}
    .fil134 {fill:#76C975}
    .fil135 {fill:#76C977}
    .fil112 {fill:#77C86E}
    .fil111 {fill:#77C86F}
    .fil136 {fill:#77C979}
    .fil137 {fill:#77C97B}
    .fil138 {fill:#77CA7D}
    .fil110 {fill:#78C870}
    .fil109 {fill:#78C872}
    .fil139 {fill:#78CA7F}
    .fil140 {fill:#78CA81}
    .fil108 {fill:#79C873}
    .fil107 {fill:#79C974}
    .fil106 {fill:#79C975}
    .fil141 {fill:#79CA83}
    .fil142 {fill:#79CB85}
    .fil143 {fill:#79CB87}
    .fil105 {fill:#7AC977}
    .fil104 {fill:#7AC978}
    .fil144 {fill:#7ACB89}
    .fil145 {fill:#7ACB8B}
    .fil103 {fill:#7BC979}
    .fil102 {fill:#7BC97B}
    .fil146 {fill:#7BCC8D}
    .fil147 {fill:#7BCC8F}
    .fil101 {fill:#7CCA7C}
    .fil100 {fill:#7CCA7D}
    .fil148 {fill:#7CCC91}
    .fil149 {fill:#7CCC92}
    .fil150 {fill:#7CCC93}
    .fil151 {fill:#7CCC94}
    .fil152 {fill:#7CCD95}
    .fil99 {fill:#7DCA7E}
    .fil98 {fill:#7DCA80}
    .fil153 {fill:#7DCD95}
    .fil154 {fill:#7DCD96}
    .fil155 {fill:#7DCD97}
    .fil156 {fill:#7DCD98}
    .fil157 {fill:#7DCD99}
    .fil158 {fill:#7DCD9A}
    .fil97 {fill:#7ECA81}
    .fil96 {fill:#7ECA82}
    .fil95 {fill:#7ECA83}
    .fil159 {fill:#7ECD9A}
    .fil160 {fill:#7ECD9B}
    .fil161 {fill:#7ECD9C}
    .fil162 {fill:#7ECD9D}
    .fil163 {fill:#7ECE9D}
    .fil164 {fill:#7ECE9E}
    .fil165 {fill:#7ECE9F}
    .fil94 {fill:#7FCB85}
    .fil93 {fill:#7FCB86}
    .fil166 {fill:#7FCE9F}
    .fil167 {fill:#7FCEA0}
    .fil168 {fill:#7FCEA1}
    .fil169 {fill:#7FCEA2}
    .fil170 {fill:#7FCEA3}
    .fil92 {fill:#80CB87}
    .fil91 {fill:#80CB89}
    .fil171 {fill:#80CEA4}
    .fil172 {fill:#80CEA5}
    .fil173 {fill:#80CFA6}
    .fil174 {fill:#80CFA7}
    .fil175 {fill:#80CFA8}
    .fil90 {fill:#81CB8A}
    .fil89 {fill:#81CB8B}
    .fil176 {fill:#81CFA9}
    .fil177 {fill:#81CFAA}
    .fil178 {fill:#81CFAB}
    .fil179 {fill:#81CFAC}
    .fil180 {fill:#81CFAD}
    .fil88 {fill:#82CB8C}
    .fil87 {fill:#82CC8E}
    .fil181 {fill:#82CFAE}
    .fil182 {fill:#82D0AE}
    .fil183 {fill:#82D0AF}
    .fil184 {fill:#82D0B0}
    .fil185 {fill:#82D0B1}
    .fil186 {fill:#82D0B2}
    .fil86 {fill:#83CC8F}
    .fil85 {fill:#83CC90}
    .fil187 {fill:#83D0B2}
    .fil188 {fill:#83D0B3}
    .fil189 {fill:#83D0B4}
    .fil190 {fill:#83D0B5}
    .fil191 {fill:#83D0B6}
    .fil192 {fill:#83D1B7}
    .fil84 {fill:#84CC91}
    .fil83 {fill:#84CC93}
    .fil82 {fill:#84CC94}
    .fil193 {fill:#84D1B7}
    .fil194 {fill:#84D1B8}
    .fil195 {fill:#84D1B9}
    .fil196 {fill:#84D1BA}
    .fil197 {fill:#84D1BB}
    .fil198 {fill:#84D1BC}
    .fil81 {fill:#85CC95}
    .fil80 {fill:#85CD97}
    .fil199 {fill:#85D1BC}
    .fil200 {fill:#85D1BD}
    .fil201 {fill:#85D1BE}
    .fil202 {fill:#85D1BF}
    .fil203 {fill:#85D2BF}
    .fil204 {fill:#85D2C0}
    .fil205 {fill:#85D2C1}
    .fil79 {fill:#86CD98}
    .fil78 {fill:#86CD99}
    .fil206 {fill:#86D2C1}
    .fil207 {fill:#86D2C2}
    .fil208 {fill:#86D2C3}
    .fil77 {fill:#87CD9A}
    .fil76 {fill:#87CD9C}
    .fil75 {fill:#88CD9D}
    .fil74 {fill:#88CE9E}
    .fil73 {fill:#89CE9F}
    .fil72 {fill:#89CEA1}
    .fil71 {fill:#89CEA2}
    .fil70 {fill:#8ACEA3}
    .fil69 {fill:#8ACEA4}
    .fil68 {fill:#8ACEA5}
    .fil67 {fill:#8BCEA6}
    .fil66 {fill:#8BCFA7}
    .fil65 {fill:#8CCFA8}
    .fil64 {fill:#8CCFA9}
    .fil63 {fill:#8CCFAA}
    .fil62 {fill:#8DCFAB}
    .fil61 {fill:#8DCFAC}
    .fil60 {fill:#8DCFAD}
    .fil59 {fill:#8ECFAE}
    .fil58 {fill:#8ED0AF}
    .fil57 {fill:#8ED0B0}
    .fil56 {fill:#8FD0B1}
    .fil55 {fill:#8FD0B2}
    .fil54 {fill:#8FD0B3}
    .fil53 {fill:#90D0B3}
    .fil52 {fill:#90D0B4}
    .fil51 {fill:#90D0B5}
    .fil50 {fill:#91D0B6}
    .fil49 {fill:#91D0B7}
    .fil48 {fill:#91D1B8}
    .fil47 {fill:#92D1B9}
    .fil46 {fill:#92D1BA}
    .fil45 {fill:#92D1BB}
    .fil44 {fill:#93D1BC}
    .fil43 {fill:#93D1BD}
    .fil42 {fill:#93D1BE}
    .fil41 {fill:#94D1BE}
    .fil40 {fill:#94D1BF}
    .fil0 {fill:#94D2C0}
    .fil1 {fill:#95D2C1}
    .fil2 {fill:#95D2C2}
    .fil3 {fill:#95D2C3}
    .fil4 {fill:#96D2C4}
    .fil5 {fill:#96D2C5}
    .fil6 {fill:#96D2C6}
    .fil7 {fill:#97D2C7}
    .fil8 {fill:#97D2C8}
    .fil9 {fill:#97D3C9}
    .fil10 {fill:#98D3C9}
    .fil11 {fill:#98D3CA}
    .fil12 {fill:#98D3CB}
    .fil13 {fill:#99D3CC}
    .fil14 {fill:#99D3CD}
    .fil15 {fill:#99D3CE}
    .fil16 {fill:#9AD3CF}
    .fil17 {fill:#9AD3D0}
    .fil18 {fill:#9AD4D1}
    .fil19 {fill:#9BD4D2}
    .fil20 {fill:#9BD4D3}
    .fil21 {fill:#9BD4D4}
    .fil22 {fill:#9CD4D5}
    .fil23 {fill:#9CD4D6}
    .fil24 {fill:#9DD4D7}
    .fil25 {fill:#9DD4D8}
    .fil26 {fill:#9DD4D9}
    .fil27 {fill:#9ED5DA}
    .fil28 {fill:#9ED5DB}
    .fil29 {fill:#9ED5DC}
    .fil30 {fill:#9FD5DD}
    .fil31 {fill:#9FD5DE}
    .fil32 {fill:#9FD5DF}
    .fil33 {fill:#A0D5E0}
    .fil34 {fill:#A0D5E1}
    .fil35 {fill:#A1D6E2}
    .fil36 {fill:#A1D6E3}
    .fil37 {fill:#A1D6E4}
    .fil38 {fill:#A2D6E5}
    .fil39 {fill:#A2D6E6}
    .fil209 {fill:url(#id1)}
   ]]>
  </style>
    <clipPath id="id0">
     <path d="M2.67 1617.27c-0.52,-237.63 -1.03,-475.56 -1.39,-713.38 -0.35,-237.23 -0.87,-474.75 -1.28,-712.23 -0.12,-70.66 35.19,-131.37 96.68,-166.19 61.48,-34.82 131.71,-33.9 192.25,2.54 194.91,117.3 389.82,234.54 584.66,351.88 200.69,120.86 401.56,241.73 602.57,362.49 59.01,35.46 92.47,94.6 92.46,163.44 -0.02,68.85 -33.5,127.97 -92.53,163.4l-1184.69 711.07c-60.44,36.28 -130.45,37.21 -191.83,2.55 -61.38,-34.66 -96.74,-95.09 -96.9,-165.58z"/>
    </clipPath>
  <linearGradient id="id1" gradientUnits="userSpaceOnUse" x1="353.73" y1="760.54" x2="1056.04" y2="752.18">
   <stop offset="0" style="stop-opacity:1; stop-color:#79BF4A"/>
   <stop offset="1" style="stop-opacity:0; stop-color:#FEFEFE"/>
  </linearGradient>
 </defs>
 <g id="Layer_x0020_1">
  <metadata id="CorelCorpID_0Corel-Layer"/>
  <g>
   <g style="clip-path:url(#id0)">
    <polygon class="fil0" points="-0.12,-9.35 4.41,-9.35 4.43,1817.51 -0.09,1817.51 "/>
    <polygon id="1" class="fil1" points="2.09,-9.35 9.05,-9.35 9.07,1817.51 2.11,1817.51 "/>
    <polygon id="2" class="fil2" points="6.73,-9.35 13.69,-9.35 13.71,1817.51 6.75,1817.51 "/>
    <polygon id="3" class="fil3" points="11.36,-9.35 18.32,-9.35 18.35,1817.51 11.39,1817.51 "/>
    <polygon id="4" class="fil4" points="16.01,-9.35 22.96,-9.35 22.99,1817.51 16.03,1817.51 "/>
    <polygon id="5" class="fil5" points="20.64,-9.35 27.6,-9.35 27.62,1817.51 20.67,1817.51 "/>
    <polygon id="6" class="fil6" points="25.28,-9.35 32.24,-9.35 32.26,1817.51 25.3,1817.51 "/>
    <polygon id="7" class="fil7" points="29.92,-9.35 36.87,-9.35 36.9,1817.51 29.94,1817.51 "/>
    <polygon id="8" class="fil8" points="34.55,-9.35 41.51,-9.35 41.53,1817.51 34.58,1817.51 "/>
    <polygon id="9" class="fil9" points="39.19,-9.35 46.15,-9.35 46.17,1817.51 39.22,1817.51 "/>
    <polygon id="10" class="fil10" points="43.83,-9.35 50.79,-9.35 50.81,1817.51 43.85,1817.51 "/>
    <polygon id="11" class="fil11" points="48.47,-9.35 55.42,-9.35 55.45,1817.51 48.49,1817.51 "/>
    <polygon id="12" class="fil12" points="53.1,-9.35 60.06,-9.35 60.09,1817.51 53.13,1817.51 "/>
    <polygon id="13" class="fil13" points="57.74,-9.35 64.7,-9.35 64.73,1817.51 57.77,1817.51 "/>
    <polygon id="14" class="fil14" points="62.38,-9.35 69.34,-9.35 69.36,1817.51 62.41,1817.51 "/>
    <polygon id="15" class="fil15" points="67.02,-9.35 73.98,-9.35 74,1817.51 67.04,1817.51 "/>
    <polygon id="16" class="fil16" points="71.66,-9.35 78.61,-9.35 78.64,1817.51 71.68,1817.51 "/>
    <polygon id="17" class="fil17" points="76.29,-9.35 83.25,-9.35 83.27,1817.51 76.32,1817.51 "/>
    <polygon id="18" class="fil18" points="80.93,-9.35 87.89,-9.35 87.91,1817.51 80.96,1817.51 "/>
    <polygon id="19" class="fil19" points="85.57,-9.35 92.53,-9.35 92.55,1817.51 85.59,1817.51 "/>
    <polygon id="20" class="fil20" points="90.21,-9.35 97.16,-9.35 97.19,1817.51 90.23,1817.51 "/>
    <polygon id="21" class="fil21" points="94.84,-9.35 101.8,-9.35 101.82,1817.51 94.87,1817.51 "/>
    <polygon id="22" class="fil22" points="99.48,-9.35 106.44,-9.35 106.46,1817.51 99.51,1817.51 "/>
    <polygon id="23" class="fil22" points="104.12,-9.35 111.07,-9.35 111.1,1817.51 104.14,1817.51 "/>
    <polygon id="24" class="fil23" points="108.76,-9.35 115.71,-9.35 115.74,1817.51 108.78,1817.51 "/>
    <polygon id="25" class="fil24" points="113.39,-9.35 120.35,-9.35 120.38,1817.51 113.42,1817.51 "/>
    <polygon id="26" class="fil25" points="118.03,-9.35 124.99,-9.35 125.01,1817.51 118.06,1817.51 "/>
    <polygon id="27" class="fil26" points="122.67,-9.35 129.63,-9.35 129.65,1817.51 122.7,1817.51 "/>
    <polygon id="28" class="fil27" points="127.31,-9.35 134.27,-9.35 134.29,1817.51 127.33,1817.51 "/>
    <polygon id="29" class="fil28" points="131.95,-9.35 138.9,-9.35 138.93,1817.51 131.97,1817.51 "/>
    <polygon id="30" class="fil29" points="136.58,-9.35 143.54,-9.35 143.56,1817.51 136.61,1817.51 "/>
    <polygon id="31" class="fil30" points="141.22,-9.35 148.18,-9.35 148.2,1817.51 141.25,1817.51 "/>
    <polygon id="32" class="fil31" points="145.86,-9.35 152.81,-9.35 152.84,1817.51 145.88,1817.51 "/>
    <polygon id="33" class="fil32" points="150.5,-9.35 157.45,-9.35 157.48,1817.51 150.52,1817.51 "/>
    <polygon id="34" class="fil33" points="155.13,-9.35 162.09,-9.35 162.12,1817.51 155.16,1817.51 "/>
    <polygon id="35" class="fil33" points="159.77,-9.35 166.73,-9.35 166.75,1817.51 159.79,1817.51 "/>
    <polygon id="36" class="fil34" points="164.41,-9.35 171.37,-9.35 171.39,1817.51 164.44,1817.51 "/>
    <polygon id="37" class="fil35" points="169.05,-9.35 176.01,-9.35 176.03,1817.51 169.07,1817.51 "/>
    <polygon id="38" class="fil36" points="173.69,-9.35 180.64,-9.35 180.67,1817.51 173.71,1817.51 "/>
    <polygon id="39" class="fil37" points="178.32,-9.35 185.28,-9.35 185.3,1817.51 178.35,1817.51 "/>
    <polygon id="40" class="fil38" points="182.96,-9.35 189.92,-9.35 189.94,1817.51 182.99,1817.51 "/>
    <polygon id="41" class="fil39" points="187.6,-9.35 194.55,-9.35 194.58,1817.51 187.62,1817.51 "/>
    <polygon id="42" class="fil38" points="192.24,-9.35 199.19,-9.35 199.22,1817.51 192.26,1817.51 "/>
    <polygon id="43" class="fil37" points="196.87,-9.35 203.83,-9.35 203.85,1817.51 196.9,1817.51 "/>
    <polygon id="44" class="fil36" points="201.51,-9.35 208.47,-9.35 208.49,1817.51 201.53,1817.51 "/>
    <polygon id="45" class="fil35" points="206.15,-9.35 213.1,-9.35 213.13,1817.51 206.17,1817.51 "/>
    <polygon id="46" class="fil34" points="210.79,-9.35 217.74,-9.35 217.77,1817.51 210.81,1817.51 "/>
    <polygon id="47" class="fil33" points="215.42,-9.35 222.38,-9.35 222.41,1817.51 215.45,1817.51 "/>
    <polygon id="48" class="fil33" points="220.06,-9.35 227.02,-9.35 227.04,1817.51 220.09,1817.51 "/>
    <polygon id="49" class="fil32" points="224.7,-9.35 231.66,-9.35 231.68,1817.51 224.73,1817.51 "/>
    <polygon id="50" class="fil31" points="229.34,-9.35 236.29,-9.35 236.32,1817.51 229.36,1817.51 "/>
    <polygon id="51" class="fil30" points="233.98,-9.35 240.93,-9.35 240.96,1817.51 234,1817.51 "/>
    <polygon id="52" class="fil29" points="238.61,-9.35 245.57,-9.35 245.59,1817.51 238.64,1817.51 "/>
    <polygon id="53" class="fil28" points="243.25,-9.35 250.21,-9.35 250.23,1817.51 243.27,1817.51 "/>
    <polygon id="54" class="fil27" points="247.89,-9.35 254.84,-9.35 254.87,1817.51 247.91,1817.51 "/>
    <polygon id="55" class="fil26" points="252.53,-9.35 259.48,-9.35 259.51,1817.51 252.55,1817.51 "/>
    <polygon id="56" class="fil25" points="257.16,-9.35 264.12,-9.35 264.15,1817.51 257.19,1817.51 "/>
    <polygon id="57" class="fil24" points="261.8,-9.35 268.76,-9.35 268.78,1817.51 261.82,1817.51 "/>
    <polygon id="58" class="fil23" points="266.44,-9.35 273.4,-9.35 273.42,1817.51 266.46,1817.51 "/>
    <polygon id="59" class="fil22" points="271.07,-9.35 278.03,-9.35 278.06,1817.51 271.1,1817.51 "/>
    <polygon id="60" class="fil22" points="275.72,-9.35 282.67,-9.35 282.7,1817.51 275.74,1817.51 "/>
    <polygon id="61" class="fil21" points="280.35,-9.35 287.31,-9.35 287.33,1817.51 280.38,1817.51 "/>
    <polygon id="62" class="fil20" points="284.99,-9.35 291.95,-9.35 291.97,1817.51 285.01,1817.51 "/>
    <polygon id="63" class="fil19" points="289.63,-9.35 296.58,-9.35 296.61,1817.51 289.65,1817.51 "/>
    <polygon id="64" class="fil18" points="294.27,-9.35 301.22,-9.35 301.24,1817.51 294.29,1817.51 "/>
    <polygon id="65" class="fil17" points="298.9,-9.35 305.86,-9.35 305.88,1817.51 298.93,1817.51 "/>
    <polygon id="66" class="fil16" points="303.54,-9.35 310.5,-9.36 310.52,1817.5 303.56,1817.51 "/>
    <polygon id="67" class="fil15" points="308.18,-9.36 315.13,-9.36 315.16,1817.5 308.2,1817.51 "/>
    <polygon id="68" class="fil14" points="312.81,-9.36 319.77,-9.36 319.8,1817.5 312.84,1817.5 "/>
    <polygon id="69" class="fil13" points="317.45,-9.36 324.41,-9.36 324.44,1817.5 317.48,1817.5 "/>
    <polygon id="70" class="fil12" points="322.09,-9.36 329.05,-9.36 329.07,1817.5 322.12,1817.5 "/>
    <polygon id="71" class="fil11" points="326.73,-9.36 333.69,-9.36 333.71,1817.5 326.75,1817.5 "/>
    <polygon id="72" class="fil10" points="331.37,-9.36 338.32,-9.36 338.35,1817.5 331.39,1817.5 "/>
    <polygon id="73" class="fil9" points="336.01,-9.36 342.96,-9.36 342.98,1817.5 336.03,1817.5 "/>
    <polygon id="74" class="fil8" points="340.64,-9.36 347.6,-9.36 347.62,1817.5 340.67,1817.5 "/>
    <polygon id="75" class="fil7" points="345.28,-9.36 352.24,-9.36 352.26,1817.5 345.3,1817.5 "/>
    <polygon id="76" class="fil6" points="349.92,-9.36 356.87,-9.36 356.9,1817.5 349.94,1817.5 "/>
    <polygon id="77" class="fil5" points="354.55,-9.36 361.51,-9.36 361.53,1817.5 354.58,1817.5 "/>
    <polygon id="78" class="fil4" points="359.19,-9.36 366.15,-9.36 366.17,1817.5 359.22,1817.5 "/>
    <polygon id="79" class="fil3" points="363.83,-9.36 370.79,-9.36 370.81,1817.5 363.85,1817.5 "/>
    <polygon id="80" class="fil2" points="368.47,-9.36 375.43,-9.36 375.45,1817.5 368.49,1817.5 "/>
    <polygon id="81" class="fil1" points="373.1,-9.36 380.06,-9.36 380.09,1817.5 373.13,1817.5 "/>
    <polygon id="82" class="fil0" points="377.75,-9.36 384.7,-9.36 384.72,1817.5 377.77,1817.5 "/>
    <polygon id="83" class="fil40" points="382.38,-9.36 389.34,-9.36 389.36,1817.5 382.41,1817.5 "/>
    <polygon id="84" class="fil41" points="387.02,-9.36 393.98,-9.36 394,1817.5 387.04,1817.5 "/>
    <polygon id="85" class="fil42" points="391.66,-9.36 398.61,-9.36 398.64,1817.5 391.68,1817.5 "/>
    <polygon id="86" class="fil43" points="396.29,-9.36 403.25,-9.36 403.27,1817.5 396.32,1817.5 "/>
    <polygon id="87" class="fil44" points="400.93,-9.36 407.89,-9.36 407.91,1817.5 400.96,1817.5 "/>
    <polygon id="88" class="fil45" points="405.57,-9.36 412.53,-9.36 412.55,1817.5 405.59,1817.5 "/>
    <polygon id="89" class="fil46" points="410.21,-9.36 417.16,-9.36 417.19,1817.5 410.23,1817.5 "/>
    <polygon id="90" class="fil47" points="414.84,-9.36 421.8,-9.36 421.83,1817.5 414.87,1817.5 "/>
    <polygon id="91" class="fil48" points="419.48,-9.36 426.44,-9.36 426.46,1817.5 419.51,1817.5 "/>
    <polygon id="92" class="fil49" points="424.12,-9.36 431.08,-9.36 431.1,1817.5 424.15,1817.5 "/>
    <polygon id="93" class="fil50" points="428.76,-9.36 435.72,-9.36 435.74,1817.5 428.78,1817.5 "/>
    <polygon id="94" class="fil51" points="433.4,-9.36 440.35,-9.36 440.38,1817.5 433.42,1817.5 "/>
    <polygon id="95" class="fil52" points="438.03,-9.36 444.99,-9.36 445.01,1817.5 438.06,1817.5 "/>
    <polygon id="96" class="fil53" points="442.67,-9.36 449.63,-9.36 449.65,1817.5 442.7,1817.5 "/>
    <polygon id="97" class="fil54" points="447.31,-9.36 454.27,-9.36 454.29,1817.5 447.33,1817.5 "/>
    <polygon id="98" class="fil55" points="451.95,-9.36 458.9,-9.36 458.93,1817.5 451.97,1817.5 "/>
    <polygon id="99" class="fil56" points="456.58,-9.36 463.54,-9.36 463.56,1817.5 456.61,1817.5 "/>
    <polygon id="100" class="fil57" points="461.22,-9.36 468.18,-9.36 468.2,1817.5 461.24,1817.5 "/>
    <polygon id="101" class="fil58" points="465.86,-9.36 472.81,-9.36 472.84,1817.5 465.88,1817.5 "/>
    <polygon id="102" class="fil59" points="470.5,-9.36 477.45,-9.36 477.48,1817.5 470.52,1817.5 "/>
    <polygon id="103" class="fil60" points="475.13,-9.36 482.09,-9.36 482.12,1817.5 475.16,1817.5 "/>
    <polygon id="104" class="fil61" points="479.77,-9.36 486.73,-9.36 486.75,1817.5 479.8,1817.5 "/>
    <polygon id="105" class="fil62" points="484.41,-9.36 491.37,-9.36 491.39,1817.5 484.44,1817.5 "/>
    <polygon id="106" class="fil63" points="489.05,-9.36 496.01,-9.36 496.03,1817.5 489.07,1817.5 "/>
    <polygon id="107" class="fil64" points="493.69,-9.36 500.64,-9.36 500.67,1817.5 493.71,1817.5 "/>
    <polygon id="108" class="fil65" points="498.32,-9.36 505.28,-9.36 505.3,1817.5 498.35,1817.5 "/>
    <polygon id="109" class="fil66" points="502.96,-9.36 509.92,-9.36 509.94,1817.5 502.98,1817.5 "/>
    <polygon id="110" class="fil66" points="507.6,-9.36 514.55,-9.36 514.58,1817.5 507.62,1817.5 "/>
    <polygon id="111" class="fil67" points="512.24,-9.36 519.19,-9.36 519.22,1817.5 512.26,1817.5 "/>
    <polygon id="112" class="fil68" points="516.87,-9.36 523.83,-9.36 523.86,1817.5 516.9,1817.5 "/>
    <polygon id="113" class="fil69" points="521.51,-9.36 528.47,-9.36 528.49,1817.5 521.53,1817.5 "/>
    <polygon id="114" class="fil70" points="526.15,-9.36 533.11,-9.36 533.13,1817.5 526.18,1817.5 "/>
    <polygon id="115" class="fil71" points="530.79,-9.36 537.74,-9.36 537.77,1817.5 530.81,1817.5 "/>
    <polygon id="116" class="fil72" points="535.43,-9.36 542.38,-9.36 542.41,1817.5 535.45,1817.5 "/>
    <polygon id="117" class="fil73" points="540.06,-9.36 547.02,-9.36 547.04,1817.5 540.09,1817.5 "/>
    <polygon id="118" class="fil74" points="544.7,-9.36 551.66,-9.36 551.68,1817.5 544.72,1817.5 "/>
    <polygon id="119" class="fil75" points="549.34,-9.36 556.29,-9.36 556.32,1817.5 549.36,1817.5 "/>
    <polygon id="120" class="fil76" points="553.98,-9.36 560.93,-9.36 560.96,1817.5 554,1817.5 "/>
    <polygon id="121" class="fil77" points="558.61,-9.36 565.57,-9.36 565.59,1817.5 558.64,1817.5 "/>
    <polygon id="122" class="fil78" points="563.25,-9.36 570.21,-9.36 570.23,1817.5 563.27,1817.5 "/>
    <polygon id="123" class="fil79" points="567.89,-9.36 574.84,-9.36 574.87,1817.5 567.91,1817.5 "/>
    <polygon id="124" class="fil80" points="572.52,-9.36 579.48,-9.36 579.51,1817.5 572.55,1817.5 "/>
    <polygon id="125" class="fil81" points="577.16,-9.36 584.12,-9.36 584.15,1817.5 577.19,1817.5 "/>
    <polygon id="126" class="fil82" points="581.8,-9.36 588.76,-9.36 588.78,1817.5 581.83,1817.5 "/>
    <polygon id="127" class="fil83" points="586.44,-9.36 593.4,-9.36 593.42,1817.5 586.46,1817.5 "/>
    <polygon id="128" class="fil84" points="591.08,-9.36 598.03,-9.36 598.06,1817.5 591.1,1817.5 "/>
    <polygon id="129" class="fil85" points="595.72,-9.36 602.67,-9.36 602.7,1817.5 595.74,1817.5 "/>
    <polygon id="130" class="fil86" points="600.35,-9.36 607.31,-9.36 607.33,1817.5 600.38,1817.5 "/>
    <polygon id="131" class="fil87" points="604.99,-9.36 611.95,-9.36 611.97,1817.5 605.01,1817.5 "/>
    <polygon id="132" class="fil88" points="609.63,-9.36 616.58,-9.36 616.61,1817.5 609.65,1817.5 "/>
    <polygon id="133" class="fil89" points="614.26,-9.36 621.22,-9.36 621.24,1817.5 614.29,1817.5 "/>
    <polygon id="134" class="fil90" points="618.9,-9.36 625.86,-9.36 625.89,1817.5 618.93,1817.5 "/>
    <polygon id="135" class="fil91" points="623.54,-9.36 630.5,-9.36 630.52,1817.5 623.56,1817.5 "/>
    <polygon id="136" class="fil92" points="628.18,-9.36 635.14,-9.36 635.16,1817.5 628.2,1817.5 "/>
    <polygon id="137" class="fil93" points="632.82,-9.36 639.77,-9.36 639.8,1817.5 632.84,1817.5 "/>
    <polygon id="138" class="fil94" points="637.46,-9.36 644.41,-9.36 644.44,1817.5 637.48,1817.5 "/>
    <polygon id="139" class="fil95" points="642.09,-9.36 649.05,-9.36 649.07,1817.5 642.12,1817.5 "/>
    <polygon id="140" class="fil96" points="646.73,-9.36 653.69,-9.36 653.71,1817.5 646.75,1817.5 "/>
    <polygon id="141" class="fil97" points="651.37,-9.36 658.32,-9.36 658.35,1817.5 651.39,1817.5 "/>
    <polygon id="142" class="fil98" points="656,-9.36 662.96,-9.36 662.98,1817.5 656.03,1817.5 "/>
    <polygon id="143" class="fil99" points="660.64,-9.36 667.6,-9.36 667.62,1817.5 660.67,1817.5 "/>
    <polygon id="144" class="fil100" points="665.28,-9.36 672.24,-9.36 672.26,1817.5 665.3,1817.5 "/>
    <polygon id="145" class="fil101" points="669.92,-9.36 676.87,-9.36 676.9,1817.5 669.94,1817.5 "/>
    <polygon id="146" class="fil102" points="674.55,-9.36 681.51,-9.36 681.54,1817.5 674.58,1817.5 "/>
    <polygon id="147" class="fil103" points="679.19,-9.36 686.15,-9.36 686.18,1817.5 679.22,1817.5 "/>
    <polygon id="148" class="fil104" points="683.83,-9.36 690.79,-9.36 690.81,1817.5 683.86,1817.5 "/>
    <polygon id="149" class="fil105" points="688.47,-9.36 695.43,-9.36 695.45,1817.5 688.49,1817.5 "/>
    <polygon id="150" class="fil106" points="693.11,-9.36 700.06,-9.36 700.09,1817.5 693.13,1817.5 "/>
    <polygon id="151" class="fil107" points="697.74,-9.36 704.7,-9.36 704.72,1817.5 697.77,1817.5 "/>
    <polygon id="152" class="fil108" points="702.38,-9.36 709.34,-9.36 709.36,1817.5 702.41,1817.5 "/>
    <polygon id="153" class="fil109" points="707.02,-9.36 713.98,-9.36 714,1817.5 707.04,1817.5 "/>
    <polygon id="154" class="fil110" points="711.66,-9.36 718.61,-9.36 718.64,1817.5 711.68,1817.5 "/>
    <polygon id="155" class="fil111" points="716.29,-9.36 723.25,-9.36 723.27,1817.5 716.32,1817.5 "/>
    <polygon id="156" class="fil112" points="720.93,-9.36 727.89,-9.36 727.91,1817.5 720.96,1817.5 "/>
    <polygon id="157" class="fil113" points="725.57,-9.36 732.52,-9.36 732.55,1817.5 725.59,1817.5 "/>
    <polygon id="158" class="fil114" points="730.21,-9.36 737.17,-9.36 737.19,1817.5 730.23,1817.5 "/>
    <polygon id="159" class="fil115" points="734.84,-9.36 741.8,-9.36 741.83,1817.5 734.87,1817.5 "/>
    <polygon id="160" class="fil116" points="739.48,-9.36 746.44,-9.36 746.46,1817.5 739.51,1817.5 "/>
    <polygon id="161" class="fil117" points="744.12,-9.36 751.08,-9.36 751.1,1817.5 744.15,1817.5 "/>
    <polygon id="162" class="fil118" points="748.76,-9.36 755.72,-9.36 755.74,1817.5 748.78,1817.5 "/>
    <polygon id="163" class="fil119" points="753.4,-9.36 760.35,-9.36 760.38,1817.5 753.42,1817.5 "/>
    <polygon id="164" class="fil120" points="758.03,-9.36 764.99,-9.36 765.01,1817.5 758.06,1817.5 "/>
    <polygon id="165" class="fil121" points="762.67,-9.36 769.63,-9.36 769.65,1817.5 762.7,1817.5 "/>
    <polygon id="166" class="fil122" points="767.31,-9.36 774.26,-9.36 774.29,1817.5 767.33,1817.5 "/>
    <polygon id="167" class="fil123" points="771.95,-9.36 778.9,-9.36 778.93,1817.5 771.97,1817.5 "/>
    <polygon id="168" class="fil124" points="776.58,-9.36 783.54,-9.36 783.57,1817.5 776.61,1817.5 "/>
    <polygon id="169" class="fil124" points="781.22,-9.36 788.18,-9.36 788.2,1817.5 781.25,1817.5 "/>
    <polygon id="170" class="fil122" points="785.86,-9.36 792.82,-9.36 792.84,1817.5 785.89,1817.5 "/>
    <polygon id="171" class="fil125" points="790.5,-9.36 797.46,-9.36 797.48,1817.5 790.52,1817.5 "/>
    <polygon id="172" class="fil126" points="795.14,-9.36 802.09,-9.36 802.12,1817.5 795.16,1817.5 "/>
    <polygon id="173" class="fil127" points="799.77,-9.36 806.73,-9.36 806.75,1817.5 799.8,1817.5 "/>
    <polygon id="174" class="fil128" points="804.41,-9.36 811.37,-9.36 811.39,1817.5 804.44,1817.5 "/>
    <polygon id="175" class="fil129" points="809.05,-9.36 816,-9.36 816.03,1817.5 809.07,1817.5 "/>
    <polygon id="176" class="fil130" points="813.69,-9.36 820.64,-9.36 820.67,1817.5 813.71,1817.5 "/>
    <polygon id="177" class="fil131" points="818.32,-9.36 825.28,-9.36 825.3,1817.5 818.35,1817.5 "/>
    <polygon id="178" class="fil132" points="822.96,-9.36 829.92,-9.36 829.94,1817.5 822.98,1817.5 "/>
    <polygon id="179" class="fil133" points="827.6,-9.36 834.55,-9.36 834.58,1817.5 827.62,1817.5 "/>
    <polygon id="180" class="fil134" points="832.24,-9.36 839.19,-9.36 839.22,1817.5 832.26,1817.5 "/>
    <polygon id="181" class="fil135" points="836.87,-9.36 843.83,-9.36 843.86,1817.5 836.9,1817.5 "/>
    <polygon id="182" class="fil136" points="841.51,-9.36 848.47,-9.36 848.49,1817.5 841.54,1817.5 "/>
    <polygon id="183" class="fil137" points="846.15,-9.36 853.11,-9.36 853.13,1817.5 846.18,1817.5 "/>
    <polygon id="184" class="fil138" points="850.79,-9.36 857.74,-9.36 857.77,1817.5 850.81,1817.5 "/>
    <polygon id="185" class="fil139" points="855.43,-9.36 862.38,-9.36 862.41,1817.5 855.45,1817.5 "/>
    <polygon id="186" class="fil140" points="860.06,-9.36 867.02,-9.36 867.04,1817.5 860.09,1817.5 "/>
    <polygon id="187" class="fil141" points="864.7,-9.36 871.66,-9.36 871.68,1817.5 864.72,1817.5 "/>
    <polygon id="188" class="fil142" points="869.34,-9.36 876.29,-9.36 876.32,1817.5 869.36,1817.5 "/>
    <polygon id="189" class="fil143" points="873.98,-9.36 880.93,-9.36 880.96,1817.5 874,1817.5 "/>
    <polygon id="190" class="fil144" points="878.61,-9.36 885.57,-9.36 885.6,1817.5 878.64,1817.5 "/>
    <polygon id="191" class="fil145" points="883.25,-9.36 890.21,-9.36 890.23,1817.5 883.28,1817.5 "/>
    <polygon id="192" class="fil146" points="887.89,-9.36 894.85,-9.36 894.87,1817.5 887.91,1817.5 "/>
    <polygon id="193" class="fil147" points="892.53,-9.36 899.48,-9.36 899.51,1817.5 892.55,1817.5 "/>
    <polygon id="194" class="fil148" points="897.17,-9.36 904.12,-9.37 904.15,1817.49 897.19,1817.5 "/>
    <polygon id="195" class="fil148" points="901.8,-9.37 908.76,-9.37 908.78,1817.49 901.83,1817.5 "/>
    <polygon id="196" class="fil148" points="906.44,-9.37 913.4,-9.37 913.42,1817.49 906.46,1817.49 "/>
    <polygon id="197" class="fil149" points="911.08,-9.37 918.03,-9.37 918.06,1817.49 911.1,1817.49 "/>
    <polygon id="198" class="fil149" points="915.72,-9.37 922.67,-9.37 922.69,1817.49 915.74,1817.49 "/>
    <polygon id="199" class="fil150" points="920.35,-9.37 927.31,-9.37 927.33,1817.49 920.38,1817.49 "/>
    <polygon id="200" class="fil150" points="924.99,-9.37 931.95,-9.37 931.97,1817.49 925.01,1817.49 "/>
    <polygon id="201" class="fil151" points="929.63,-9.37 936.58,-9.37 936.61,1817.49 929.65,1817.49 "/>
    <polygon id="202" class="fil151" points="934.26,-9.37 941.22,-9.37 941.25,1817.49 934.29,1817.49 "/>
    <polygon id="203" class="fil152" points="938.9,-9.37 945.86,-9.37 945.89,1817.49 938.93,1817.49 "/>
    <polygon id="204" class="fil153" points="943.54,-9.37 950.5,-9.37 950.52,1817.49 943.57,1817.49 "/>
    <polygon id="205" class="fil154" points="948.18,-9.37 955.14,-9.37 955.16,1817.49 948.2,1817.49 "/>
    <polygon id="206" class="fil154" points="952.82,-9.37 959.77,-9.37 959.8,1817.49 952.84,1817.49 "/>
    <polygon id="207" class="fil155" points="957.46,-9.37 964.41,-9.37 964.43,1817.49 957.48,1817.49 "/>
    <polygon id="208" class="fil155" points="962.09,-9.37 969.05,-9.37 969.07,1817.49 962.12,1817.49 "/>
    <polygon id="209" class="fil156" points="966.73,-9.37 973.69,-9.37 973.71,1817.49 966.75,1817.49 "/>
    <polygon id="210" class="fil156" points="971.37,-9.37 978.32,-9.37 978.35,1817.49 971.39,1817.49 "/>
    <polygon id="211" class="fil157" points="976,-9.37 982.96,-9.37 982.98,1817.49 976.03,1817.49 "/>
    <polygon id="212" class="fil157" points="980.64,-9.37 987.6,-9.37 987.63,1817.49 980.67,1817.49 "/>
    <polygon id="213" class="fil158" points="985.28,-9.37 992.24,-9.37 992.26,1817.49 985.3,1817.49 "/>
    <polygon id="214" class="fil159" points="989.92,-9.37 996.88,-9.37 996.9,1817.49 989.94,1817.49 "/>
    <polygon id="215" class="fil160" points="994.56,-9.37 1001.51,-9.37 1001.54,1817.49 994.58,1817.49 "/>
    <polygon id="216" class="fil160" points="999.2,-9.37 1006.15,-9.37 1006.17,1817.49 999.22,1817.49 "/>
    <polygon id="217" class="fil161" points="1003.83,-9.37 1010.79,-9.37 1010.81,1817.49 1003.86,1817.49 "/>
    <polygon id="218" class="fil161" points="1008.47,-9.37 1015.43,-9.37 1015.45,1817.49 1008.49,1817.49 "/>
    <polygon id="219" class="fil162" points="1013.11,-9.37 1020.06,-9.37 1020.09,1817.49 1013.13,1817.49 "/>
    <polygon id="220" class="fil163" points="1017.74,-9.37 1024.7,-9.37 1024.72,1817.49 1017.77,1817.49 "/>
    <polygon id="221" class="fil164" points="1022.38,-9.37 1029.34,-9.37 1029.36,1817.49 1022.41,1817.49 "/>
    <polygon id="222" class="fil164" points="1027.02,-9.37 1033.98,-9.37 1034,1817.49 1027.04,1817.49 "/>
    <polygon id="223" class="fil165" points="1031.66,-9.37 1038.61,-9.37 1038.64,1817.49 1031.68,1817.49 "/>
    <polygon id="224" class="fil166" points="1036.29,-9.37 1043.25,-9.37 1043.28,1817.49 1036.32,1817.49 "/>
    <polygon id="225" class="fil167" points="1040.93,-9.37 1047.89,-9.37 1047.91,1817.49 1040.96,1817.49 "/>
    <polygon id="226" class="fil167" points="1045.57,-9.37 1052.53,-9.37 1052.55,1817.49 1045.6,1817.49 "/>
    <polygon id="227" class="fil168" points="1050.21,-9.37 1057.17,-9.37 1057.19,1817.49 1050.23,1817.49 "/>
    <polygon id="228" class="fil168" points="1054.85,-9.37 1061.8,-9.37 1061.83,1817.49 1054.87,1817.49 "/>
    <polygon id="229" class="fil169" points="1059.48,-9.37 1066.44,-9.37 1066.46,1817.49 1059.51,1817.49 "/>
    <polygon id="230" class="fil169" points="1064.12,-9.37 1071.08,-9.37 1071.1,1817.49 1064.15,1817.49 "/>
    <polygon id="231" class="fil170" points="1068.76,-9.37 1075.72,-9.37 1075.74,1817.49 1068.78,1817.49 "/>
    <polygon id="232" class="fil170" points="1073.4,-9.37 1080.35,-9.37 1080.38,1817.49 1073.42,1817.49 "/>
    <polygon id="233" class="fil171" points="1078.03,-9.37 1084.99,-9.37 1085.01,1817.49 1078.06,1817.49 "/>
    <polygon id="234" class="fil171" points="1082.67,-9.37 1089.63,-9.37 1089.65,1817.49 1082.69,1817.49 "/>
    <polygon id="235" class="fil172" points="1087.31,-9.37 1094.26,-9.37 1094.29,1817.49 1087.33,1817.49 "/>
    <polygon id="236" class="fil172" points="1091.95,-9.37 1098.91,-9.37 1098.93,1817.49 1091.97,1817.49 "/>
    <polygon id="237" class="fil173" points="1096.58,-9.37 1103.54,-9.37 1103.57,1817.49 1096.61,1817.49 "/>
    <polygon id="238" class="fil173" points="1101.22,-9.37 1108.18,-9.37 1108.2,1817.49 1101.25,1817.49 "/>
    <polygon id="239" class="fil174" points="1105.86,-9.37 1112.82,-9.37 1112.84,1817.49 1105.89,1817.49 "/>
    <polygon id="240" class="fil174" points="1110.5,-9.37 1117.46,-9.37 1117.48,1817.49 1110.52,1817.49 "/>
    <polygon id="241" class="fil175" points="1115.14,-9.37 1122.09,-9.37 1122.12,1817.49 1115.16,1817.49 "/>
    <polygon id="242" class="fil175" points="1119.77,-9.37 1126.73,-9.37 1126.75,1817.49 1119.8,1817.49 "/>
    <polygon id="243" class="fil176" points="1124.41,-9.37 1131.37,-9.37 1131.39,1817.49 1124.43,1817.49 "/>
    <polygon id="244" class="fil176" points="1129.05,-9.37 1136,-9.37 1136.03,1817.49 1129.07,1817.49 "/>
    <polygon id="245" class="fil177" points="1133.69,-9.37 1140.64,-9.37 1140.67,1817.49 1133.71,1817.49 "/>
    <polygon id="246" class="fil177" points="1138.32,-9.37 1145.28,-9.37 1145.31,1817.49 1138.35,1817.49 "/>
    <polygon id="247" class="fil178" points="1142.96,-9.37 1149.92,-9.37 1149.94,1817.49 1142.99,1817.49 "/>
    <polygon id="248" class="fil178" points="1147.6,-9.37 1154.56,-9.37 1154.58,1817.49 1147.63,1817.49 "/>
    <polygon id="249" class="fil179" points="1152.24,-9.37 1159.2,-9.37 1159.22,1817.49 1152.26,1817.49 "/>
    <polygon id="250" class="fil179" points="1156.88,-9.37 1163.83,-9.37 1163.86,1817.49 1156.9,1817.49 "/>
    <polygon id="251" class="fil180" points="1161.51,-9.37 1168.47,-9.37 1168.49,1817.49 1161.54,1817.49 "/>
    <polygon id="252" class="fil180" points="1166.15,-9.37 1173.11,-9.37 1173.13,1817.49 1166.17,1817.49 "/>
    <polygon id="253" class="fil181" points="1170.79,-9.37 1177.74,-9.37 1177.77,1817.49 1170.81,1817.49 "/>
    <polygon id="254" class="fil182" points="1175.43,-9.37 1182.38,-9.37 1182.41,1817.49 1175.45,1817.49 "/>
    <polygon id="255" class="fil183" points="1180.06,-9.37 1187.02,-9.37 1187.04,1817.49 1180.09,1817.49 "/>
    <polygon id="256" class="fil183" points="1184.7,-9.37 1191.66,-9.37 1191.68,1817.49 1184.72,1817.49 "/>
    <polygon id="257" class="fil184" points="1189.34,-9.37 1196.29,-9.37 1196.32,1817.49 1189.36,1817.49 "/>
    <polygon id="258" class="fil184" points="1193.98,-9.37 1200.93,-9.37 1200.96,1817.49 1194,1817.49 "/>
    <polygon id="259" class="fil185" points="1198.61,-9.37 1205.57,-9.37 1205.6,1817.49 1198.64,1817.49 "/>
    <polygon id="260" class="fil185" points="1203.25,-9.37 1210.21,-9.37 1210.23,1817.49 1203.28,1817.49 "/>
    <polygon id="261" class="fil186" points="1207.89,-9.37 1214.85,-9.37 1214.87,1817.49 1207.91,1817.49 "/>
    <polygon id="262" class="fil187" points="1212.53,-9.37 1219.48,-9.37 1219.51,1817.49 1212.55,1817.49 "/>
    <polygon id="263" class="fil188" points="1217.17,-9.37 1224.12,-9.37 1224.15,1817.49 1217.19,1817.49 "/>
    <polygon id="264" class="fil188" points="1221.8,-9.37 1228.76,-9.37 1228.78,1817.49 1221.83,1817.49 "/>
    <polygon id="265" class="fil189" points="1226.44,-9.37 1233.4,-9.37 1233.42,1817.49 1226.46,1817.49 "/>
    <polygon id="266" class="fil189" points="1231.08,-9.37 1238.03,-9.37 1238.06,1817.49 1231.1,1817.49 "/>
    <polygon id="267" class="fil190" points="1235.71,-9.37 1242.67,-9.37 1242.69,1817.49 1235.74,1817.49 "/>
    <polygon id="268" class="fil190" points="1240.35,-9.37 1247.31,-9.37 1247.34,1817.49 1240.38,1817.49 "/>
    <polygon id="269" class="fil191" points="1244.99,-9.37 1251.95,-9.37 1251.97,1817.49 1245.02,1817.49 "/>
    <polygon id="270" class="fil191" points="1249.63,-9.37 1256.59,-9.37 1256.61,1817.49 1249.65,1817.49 "/>
    <polygon id="271" class="fil192" points="1254.27,-9.37 1261.22,-9.37 1261.25,1817.49 1254.29,1817.49 "/>
    <polygon id="272" class="fil193" points="1258.91,-9.37 1265.86,-9.37 1265.89,1817.49 1258.93,1817.49 "/>
    <polygon id="273" class="fil194" points="1263.54,-9.37 1270.5,-9.37 1270.52,1817.49 1263.57,1817.49 "/>
    <polygon id="274" class="fil194" points="1268.18,-9.37 1275.14,-9.37 1275.16,1817.49 1268.2,1817.49 "/>
    <polygon id="275" class="fil195" points="1272.82,-9.37 1279.77,-9.37 1279.8,1817.49 1272.84,1817.49 "/>
    <polygon id="276" class="fil195" points="1277.45,-9.37 1284.41,-9.37 1284.43,1817.49 1277.48,1817.49 "/>
    <polygon id="277" class="fil196" points="1282.09,-9.37 1289.05,-9.37 1289.07,1817.49 1282.12,1817.49 "/>
    <polygon id="278" class="fil196" points="1286.73,-9.37 1293.69,-9.37 1293.71,1817.49 1286.75,1817.49 "/>
    <polygon id="279" class="fil197" points="1291.37,-9.37 1298.32,-9.37 1298.35,1817.49 1291.39,1817.49 "/>
    <polygon id="280" class="fil197" points="1296,-9.37 1302.96,-9.37 1302.99,1817.49 1296.03,1817.49 "/>
    <polygon id="281" class="fil198" points="1300.64,-9.37 1307.6,-9.37 1307.63,1817.49 1300.67,1817.49 "/>
    <polygon id="282" class="fil199" points="1305.28,-9.37 1312.24,-9.37 1312.26,1817.49 1305.31,1817.49 "/>
    <polygon id="283" class="fil200" points="1309.92,-9.37 1316.88,-9.37 1316.9,1817.49 1309.94,1817.49 "/>
    <polygon id="284" class="fil200" points="1314.56,-9.37 1321.51,-9.37 1321.54,1817.49 1314.58,1817.49 "/>
    <polygon id="285" class="fil201" points="1319.19,-9.37 1326.15,-9.37 1326.17,1817.49 1319.22,1817.49 "/>
    <polygon id="286" class="fil201" points="1323.83,-9.37 1330.79,-9.37 1330.81,1817.49 1323.86,1817.49 "/>
    <polygon id="287" class="fil202" points="1328.47,-9.37 1335.43,-9.37 1335.45,1817.49 1328.49,1817.49 "/>
    <polygon id="288" class="fil203" points="1333.11,-9.37 1340.06,-9.37 1340.09,1817.49 1333.13,1817.49 "/>
    <polygon id="289" class="fil204" points="1337.74,-9.37 1344.7,-9.37 1344.72,1817.49 1337.77,1817.49 "/>
    <polygon id="290" class="fil204" points="1342.38,-9.37 1349.34,-9.37 1349.37,1817.49 1342.41,1817.49 "/>
    <polygon id="291" class="fil205" points="1347.02,-9.37 1353.97,-9.37 1354,1817.49 1347.04,1817.49 "/>
    <polygon id="292" class="fil206" points="1351.66,-9.37 1358.62,-9.37 1358.64,1817.49 1351.68,1817.49 "/>
    <polygon id="293" class="fil207" points="1356.3,-9.37 1363.25,-9.37 1363.28,1817.49 1356.32,1817.49 "/>
    <polygon id="294" class="fil207" points="1360.93,-9.37 1367.89,-9.37 1367.91,1817.49 1360.96,1817.49 "/>
    <polygon id="295" class="fil208" points="1365.57,-9.37 1372.53,-9.37 1372.55,1817.49 1365.6,1817.49 "/>
    <polygon id="296" class="fil208" points="1370.21,-9.37 1377.17,-9.37 1377.19,1817.49 1370.23,1817.49 "/>
    <polygon id="297" class="fil208" points="1374.85,-9.37 1381.8,-9.37 1381.83,1817.49 1374.87,1817.49 "/>
    <polygon id="298" class="fil207" points="1379.48,-9.37 1386.44,-9.37 1386.46,1817.49 1379.51,1817.49 "/>
    <polygon id="299" class="fil207" points="1384.12,-9.37 1391.08,-9.37 1391.1,1817.49 1384.15,1817.49 "/>
    <polygon id="300" class="fil206" points="1388.76,-9.37 1395.71,-9.37 1395.74,1817.49 1388.78,1817.49 "/>
    <polygon id="301" class="fil205" points="1393.4,-9.37 1400.35,-9.37 1400.38,1817.49 1393.42,1817.49 "/>
    <polygon id="302" class="fil204" points="1398.03,-9.37 1404.99,-9.37 1405.02,1817.49 1398.06,1817.49 "/>
    <polygon id="303" class="fil204" points="1402.67,-9.37 1409.63,-9.37 1409.65,1817.49 1402.7,1817.49 "/>
    <polygon id="304" class="fil203" points="1407.31,-9.37 1414.27,-9.37 1414.29,1817.49 1407.34,1817.49 "/>
    <polygon id="305" class="fil202" points="1411.95,-9.37 1418.91,-9.37 1418.93,1817.49 1411.97,1817.49 "/>
    <polygon id="306" class="fil201" points="1416.59,-9.37 1423.54,-9.37 1423.57,1817.49 1416.61,1817.49 "/>
    <polygon id="307" class="fil201" points="1421.22,-9.37 1428.18,-9.37 1428.2,1817.49 1421.25,1817.49 "/>
    <polygon id="308" class="fil200" points="1425.86,-9.37 1432.82,-9.37 1432.84,1817.49 1425.89,1817.49 "/>
    <polygon id="309" class="fil200" points="1430.5,-9.37 1437.45,-9.37 1437.48,1817.49 1430.52,1817.49 "/>
    <polygon id="310" class="fil199" points="1435.14,-9.37 1442.09,-9.37 1442.12,1817.49 1435.16,1817.49 "/>
    <polygon id="311" class="fil198" points="1439.77,-9.37 1446.73,-9.37 1446.75,1817.49 1439.8,1817.49 "/>
    <polygon id="312" class="fil197" points="1444.41,-9.37 1451.37,-9.37 1451.39,1817.49 1444.43,1817.49 "/>
    <polygon id="313" class="fil197" points="1449.05,-9.37 1456,-9.37 1456.03,1817.49 1449.07,1817.49 "/>
    <polygon id="314" class="fil196" points="1453.69,-9.37 1460.65,-9.37 1460.67,1817.49 1453.71,1817.49 "/>
    <polygon id="315" class="fil196" points="1458.32,-9.37 1465.28,-9.37 1465.31,1817.49 1458.35,1817.49 "/>
    <polygon id="316" class="fil195" points="1462.96,-9.37 1469.92,-9.37 1469.94,1817.49 1462.99,1817.49 "/>
    <polygon id="317" class="fil195" points="1467.6,-9.37 1474.56,-9.37 1474.58,1817.49 1467.63,1817.49 "/>
    <polygon id="318" class="fil194" points="1472.24,-9.37 1479.19,-9.37 1479.22,1817.49 1472.26,1817.49 "/>
    <polygon id="319" class="fil194" points="1476.88,-9.37 1483.83,-9.37 1483.86,1817.49 1476.9,1817.49 "/>
    <polygon id="320" class="fil193" points="1481.51,-9.37 1488.47,-9.37 1488.49,1817.49 1481.54,1817.49 "/>
    <polygon id="321" class="fil192" points="1486.15,-9.37 1493.11,-9.37 1493.13,1817.49 1486.17,1817.49 "/>
    <polygon id="322" class="fil191" points="1490.79,-9.37 1497.74,-9.37 1497.77,1817.49 1490.81,1817.49 "/>
    <polygon id="323" class="fil191" points="1495.43,-9.37 1502.38,-9.37 1502.41,1817.49 1495.45,1817.49 "/>
    <polygon id="324" class="fil190" points="1500.06,-9.37 1507.02,-9.37 1507.05,1817.49 1500.09,1817.49 "/>
    <polygon id="325" class="fil190" points="1504.7,-9.37 1511.66,-9.37 1511.68,1817.49 1504.73,1817.49 "/>
    <polygon id="326" class="fil189" points="1509.34,-9.37 1516.3,-9.37 1516.32,1817.49 1509.37,1817.49 "/>
    <polygon id="327" class="fil189" points="1513.98,-9.37 1520.93,-9.37 1520.96,1817.49 1514,1817.49 "/>
    <polygon id="328" class="fil188" points="1518.62,-9.37 1525.57,-9.37 1525.6,1817.49 1518.64,1817.49 "/>
    <polygon id="329" class="fil188" points="1523.25,-9.37 1530.21,-9.37 1530.23,1817.49 1523.28,1817.49 "/>
    <polygon id="330" class="fil187" points="1527.89,-9.37 1534.85,-9.37 1534.87,1817.49 1527.91,1817.49 "/>
    <polygon id="331" class="fil186" points="1532.53,-9.37 1539.48,-9.37 1539.51,1817.49 1532.55,1817.49 "/>
    <polygon id="332" class="fil185" points="1537.17,-9.37 1544.12,-9.37 1544.15,1817.49 1537.19,1817.49 "/>
    <polygon id="333" class="fil185" points="1541.8,-9.37 1548.76,-9.37 1548.78,1817.49 1541.83,1817.49 "/>
    <polygon id="334" class="fil184" points="1546.44,-9.37 1553.4,-9.37 1553.42,1817.49 1546.46,1817.49 "/>
    <polygon id="335" class="fil184" points="1551.08,-9.37 1558.03,-9.37 1558.06,1817.49 1551.1,1817.49 "/>
    <polygon id="336" class="fil183" points="1555.71,-9.37 1562.67,-9.37 1562.7,1817.49 1555.74,1817.49 "/>
    <polygon id="337" class="fil183" points="1560.35,-9.37 1567.31,-9.37 1567.34,1817.49 1560.38,1817.49 "/>
    <polygon id="338" class="fil182" points="1564.99,-9.37 1571.95,-9.37 1571.97,1817.49 1565.02,1817.49 "/>
    <polygon id="339" class="fil181" points="1569.63,-9.37 1568.62,-9.37 1568.64,1817.49 1569.65,1817.49 "/>
   </g>
  </g>
  <path class="fil209" d="M649.47 377.58c339.39,0 614.53,179.65 614.53,401.26 0,100.82 -56.96,192.96 -151.01,263.45l-59.2 38.71c-59.54,34 -129.22,60.61 -205.68,77.66l0 283.37 -214.78 129.04 0 -391.1c-331.93,-5.59 -598.39,-183.03 -598.39,-401.12 0,-221.61 275.13,-401.26 614.53,-401.26z"/>
  <polygon class="fil210" points="865.92,481.46 865.92,789.09 1130.79,789.09 1130.79,1011.7 865.92,1011.7 865.92,1438.73 651.14,1567.77 651.14,1011.7 403.39,1011.7 403.39,789.09 651.14,789.09 651.14,583.5 "/>
 </g>
</svg>
